<?xml version="1.0" standalone="no"?>
<!DOCTYPE svg PUBLIC "-//W3C//DTD SVG 20010904//EN" "http://www.w3.org/TR/2001/REC-SVG-20010904/DTD/svg10.dtd">
<!-- Created using Krita: https://krita.org -->
<svg xmlns="http://www.w3.org/2000/svg" 
    xmlns:xlink="http://www.w3.org/1999/xlink"
    xmlns:krita="http://krita.org/namespaces/svg/krita"
    xmlns:sodipodi="http://sodipodi.sourceforge.net/DTD/sodipodi-0.dtd"
    width="8.64pt"
    height="8.82pt"
    viewBox="0 0 8.64 8.82">
<defs/>
<g id="group0" transform="matrix(0.0359999991212065 0 0 0.0359999991212065 0 0)" fill="none">
  <g id="group1" transform="matrix(0.99999997558907 0 0 0.99999997558907 64.602654359439 64.9775373194785)" fill="none">
   <g id="group2" transform="matrix(0.99999997219842 0 0 0.99999997219842 0 2.57946891268901e-06)" fill="none">
    <g id="group3" transform="matrix(1.58176247928555 0 0 1.58176247928555 -14.1820893041752 -14.7189067639406)" fill="none">
     <path id="shape0" transform="translate(8.96600545623349, 23.006)" fill="#01ff70" stroke-opacity="0" stroke="#000000" stroke-width="0" stroke-linecap="square" stroke-linejoin="bevel" d="M57.656 47.066C45.012 58.094 26.223 57.759 13.953 46.278C2.72199 35.77 0.450995 19.145 7.97499 6.17L8.67699 9.163C8.86899 9.981 9.59699 10.533 10.403 10.533C10.537 10.533 10.674 10.517 10.809 10.486C11.763 10.262 12.355 9.308 12.131 8.354L10.491 1.362C10.485 1.334 10.471 1.31 10.464 1.282C10.446 1.221 10.426 1.162 10.402 1.103C10.381 1.052 10.36 1.003 10.335 0.956C10.307 0.901 10.276 0.849 10.242 0.798C10.213 0.753 10.181 0.709 10.148 0.667C10.11 0.619 10.068 0.573 10.024 0.529C9.98599 0.49 9.94699 0.454 9.90599 0.419C9.88099 0.398 9.85999 0.372 9.83299 0.352C9.80799 0.332 9.77999 0.321 9.75399 0.303C9.71099 0.275 9.66799 0.249 9.62299 0.224C9.56499 0.191 9.50599 0.161 9.44599 0.137C9.40199 0.118 9.35699 0.103 9.31199 0.088C9.24899 0.067 9.18599 0.049 9.12099 0.035C9.07299 0.026 9.02299 0.019 8.97399 0.014C8.90999 0.006 8.84699 0.001 8.78299 0C8.73199 0 8.68099 0.003 8.62899 0.007C8.56399 0.012 8.49999 0.019 8.43599 0.031C8.41099 0.035 8.38699 0.035 8.36199 0.041L1.36999 1.678C0.415995 1.901 -0.176005 2.855 0.0469945 3.809C0.269995 4.763 1.22499 5.352 2.17799 5.132L4.84099 4.509C-3.42501 18.881 -0.889005 37.249 11.531 48.872C18.503 55.393 27.372 58.672 36.251 58.672C44.697 58.672 53.154 55.704 59.99 49.74C60.727 49.097 60.803 47.975 60.16 47.238C59.516 46.498 58.395 46.422 57.656 47.066Z" sodipodi:nodetypes="ccccccccccccccccccccccccccccccccccc"/>
     <path id="shape1" transform="translate(31.5461059224352, 20.801)" fill="#01ff70" stroke-opacity="0" stroke="#000000" stroke-width="0" stroke-linecap="square" stroke-linejoin="bevel" d="M13.6729 49.285C14.3259 49.285 14.8559 48.756 14.8559 48.102L14.8559 40.828C21.6009 38.349 25.6659 34.474 26.9249 29.295C30.0009 16.655 15.1589 1.02 14.5269 0.361C14.5229 0.358 14.5199 0.357 14.5159 0.354C14.5109 0.348 14.5039 0.343 14.4979 0.337C14.4949 0.334 14.4949 0.331 14.4919 0.328C14.4539 0.292 14.4059 0.278 14.3649 0.247C14.3229 0.217 14.2809 0.186 14.2359 0.161C14.1999 0.141 14.1719 0.108 14.1349 0.094C14.1279 0.091 14.1199 0.091 14.1119 0.088C14.0469 0.062 13.9759 0.059 13.9079 0.045C13.8329 0.029 13.7599 0.003 13.6839 0.002C13.6799 0.002 13.6769 0 13.6729 0C13.6689 0 13.6649 0.002 13.6599 0.002C13.5939 0.003 13.5299 0.028 13.4639 0.04C13.3849 0.054 13.3069 0.058 13.2319 0.088C13.2249 0.091 13.2159 0.091 13.2089 0.094C13.1779 0.107 13.1549 0.135 13.1249 0.151C13.0769 0.176 13.0359 0.209 12.9919 0.24C12.9469 0.272 12.8939 0.289 12.8529 0.328C12.8499 0.331 12.8489 0.335 12.8459 0.338C12.8409 0.344 12.8349 0.349 12.8289 0.355C12.8259 0.358 12.8219 0.359 12.8189 0.362C12.1859 1.021 -2.65611 16.656 0.418894 29.296C1.67989 34.476 5.74489 38.351 12.4889 40.829L12.4889 48.103C12.4909 48.756 13.0199 49.285 13.6729 49.285ZM24.6269 28.735C23.6149 32.894 20.3129 36.09 14.8559 38.281L14.8559 33.863L21.1959 27.523C21.6579 27.061 21.6579 26.313 21.1959 25.85C20.7339 25.388 19.9859 25.388 19.5239 25.85L14.8559 30.518L14.8559 21.436L18.4699 17.82C18.9319 17.358 18.9319 16.61 18.4699 16.148C18.0079 15.686 17.2599 15.686 16.7979 16.148L14.8559 18.091L14.8559 4.324C18.7619 9.032 26.7539 19.997 24.6269 28.735ZM2.71889 28.738C0.592894 20.01 8.58289 9.037 12.4899 4.325L12.4899 15.754L10.5479 13.812C10.0859 13.35 9.33789 13.35 8.87589 13.812C8.41389 14.274 8.41389 15.022 8.87589 15.484L12.4899 19.098L12.4899 28.181L7.82289 23.514C7.36089 23.052 6.61289 23.052 6.15089 23.514C5.68889 23.976 5.68889 24.724 6.15089 25.186L12.4899 31.525L12.4899 38.281C7.03389 36.092 3.73189 32.896 2.71889 28.738Z" sodipodi:nodetypes="ccccccccccccccccccccccccccccccccccccccccccccccccccccccccc"/>
     <path id="shape2" transform="translate(21.4312080021723, 9.30538332618326)" fill="#01ff70" stroke-opacity="0" stroke="#000000" stroke-width="0" stroke-linecap="square" stroke-linejoin="bevel" d="M60.3348 54.3156C60.1098 53.3616 59.1578 52.7736 58.2028 52.9926L55.4348 53.6406C63.3418 39.3536 60.6908 21.1716 48.4818 9.75062C35.1778 -2.69938 14.6088 -3.29638 0.637792 8.35962C-0.114208 8.98662 -0.216208 10.1056 0.411792 10.8576C1.03979 11.6096 2.15879 11.7116 2.91079 11.0836C15.5098 0.573617 34.0578 1.11362 46.0598 12.3416C57.0388 22.6126 59.4258 38.9356 52.3698 51.8046L51.7018 48.9576C51.4788 48.0046 50.5258 47.4086 49.5698 47.6366C48.6158 47.8606 48.0248 48.8146 48.2488 49.7686L49.8898 56.7606C49.8938 56.7766 49.9058 56.7896 49.9088 56.8056C49.9558 56.9786 50.0218 57.1476 50.1208 57.3016C50.1318 57.3206 50.1468 57.3356 50.1598 57.3546C50.2498 57.4846 50.3578 57.6046 50.4858 57.7106C50.5068 57.7286 50.5228 57.7466 50.5438 57.7626C50.5558 57.7716 50.5648 57.7816 50.5738 57.7896C50.6608 57.8516 50.7588 57.8856 50.8528 57.9316C50.9198 57.9636 50.9818 58.0086 51.0528 58.0336C51.2368 58.0956 51.4258 58.1296 51.6148 58.1296C51.7488 58.1296 51.8838 58.1146 52.0198 58.0836L59.0108 56.4466C59.9648 56.2226 60.5568 55.2686 60.3348 54.3156Z" sodipodi:nodetypes="ccccccccccccccccccccccccc"/>
    </g>
   </g>
  </g>
  <g id="group4" transform="matrix(0.99999997558907 0 0 0.99999997558907 0 0)" fill="none">
   <path id="shape3" transform="translate(4.22338805970147, 76.6829734204336)" fill="#01ff70" stroke-opacity="0" stroke="#000000" stroke-width="0" stroke-linecap="square" stroke-linejoin="bevel" d="M9.07261 3.84603L9.07261 3.84603C8.34061 3.59603 7.56861 3.46603 6.75461 3.45503C5.94061 3.44503 5.18961 3.65303 4.50161 4.08003C3.81961 4.50903 3.29961 5.24703 2.94261 6.29503L2.94261 6.29503C2.41861 7.82803 2.69561 9.21503 3.77161 10.456C4.84161 11.695 6.67561 12.758 9.27461 13.646L9.27461 13.646C11.6846 14.469 13.6846 14.677 15.2746 14.269C16.8736 13.857 17.9296 12.901 18.4426 11.4L18.4426 11.4C18.7526 10.492 18.8636 9.54003 18.7736 8.54403C18.6836 7.54803 18.4256 6.51303 17.9966 5.43603L17.9966 5.43603C18.3396 5.17303 18.7526 4.95503 19.2346 4.78103C19.7166 4.60803 20.1536 4.53503 20.5456 4.56403L20.5456 4.56403C20.8966 5.29003 21.1646 6.10303 21.3486 7.00403C21.5356 7.89903 21.6036 8.84503 21.5526 9.84203C21.5076 10.841 21.3136 11.842 20.9706 12.845L20.9706 12.845C20.4966 14.233 19.8066 15.314 18.9006 16.089C17.9966 16.858 16.9546 17.372 15.7746 17.631C14.6006 17.892 13.3566 17.946 12.0426 17.793C10.7346 17.642 9.43461 17.346 8.14061 16.904L8.14061 16.904C5.73061 16.081 3.88161 15.04 2.59261 13.783C1.30361 12.525 0.499612 11.166 0.181612 9.70503C-0.130388 8.24603 -0.0403881 6.79803 0.451612 5.35903L0.451612 5.35903C0.942612 3.92103 1.63261 2.76903 2.51961 1.90303C3.41361 1.03903 4.39061 0.468027 5.45061 0.189027C6.51061 -0.0899734 7.53661 -0.0599734 8.52661 0.278027L8.52661 0.278027C9.05661 0.459027 9.43561 0.740027 9.66561 1.12103C9.90061 1.50403 9.91061 2.01103 9.69461 2.64303L9.69461 2.64303C9.61461 2.87603 9.52361 3.08103 9.42161 3.25703C9.32561 3.43503 9.20861 3.63203 9.07261 3.84603Z" sodipodi:nodetypes="cccccccccccccccccccccccccccccccccccccccc"/>
   <path id="shape4" transform="translate(18.984, 51.7679999999999)" fill="#01ff70" stroke-opacity="0" stroke="#000000" stroke-width="0" stroke-linecap="square" stroke-linejoin="bevel" d="M13.212 20.592L0 3.084C0.114 2.847 0.267 2.572 0.458 2.259C0.648 1.936 0.82 1.662 0.975 1.437L0.975 1.437C1.122 1.223 1.311 0.972 1.54 0.685C1.768 0.389 1.965 0.16 2.133 0L2.133 0L23.209 6.109C23.198 6.384 23.121 6.684 22.979 7.007C22.841 7.325 22.672 7.629 22.472 7.92L22.472 7.92C22.177 8.348 21.85 8.613 21.49 8.713C21.139 8.811 20.618 8.752 19.926 8.535L19.926 8.535L9.19 5.266C8.292 4.996 7.345 4.697 6.349 4.368C5.353 4.039 4.458 3.735 3.664 3.456L3.664 3.456L3.579 3.579C3.907 3.926 4.252 4.317 4.616 4.754C4.983 5.185 5.34 5.608 5.685 6.023C6.034 6.433 6.328 6.788 6.565 7.089L6.565 7.089L15.189 18.177C15.105 18.37 15.001 18.574 14.878 18.788C14.755 19.003 14.623 19.211 14.483 19.415L14.483 19.415C14.321 19.651 14.144 19.873 13.952 20.081C13.764 20.284 13.581 20.461 13.404 20.614L13.404 20.614ZM15.313 8.979L12.916 12.464C12.863 12.541 12.751 12.698 12.58 12.936C12.408 13.174 12.235 13.415 12.059 13.658C11.893 13.9 11.783 14.059 11.73 14.136L11.73 14.136L10.863 15.397L9.242 13.044L10.001 11.94C10.058 11.858 10.157 11.707 10.298 11.489C10.442 11.28 10.584 11.067 10.726 10.849C10.868 10.631 10.967 10.481 11.024 10.398L11.024 10.398L12.758 7.877C12.811 7.8 12.916 7.654 13.072 7.438C13.225 7.228 13.379 7.01 13.533 6.785C13.693 6.564 13.798 6.417 13.848 6.346L13.848 6.346L14.635 5.2L17.333 5.988L16.467 7.249C16.41 7.331 16.295 7.499 16.121 7.751C15.957 8.002 15.794 8.25 15.633 8.496C15.472 8.741 15.366 8.903 15.313 8.979Z" sodipodi:nodetypes="cccccccccccccccccccccccccccccccccccccccccccccccccccccccc"/>
   <path id="shape5" transform="translate(37.366, 26.4925049929484)" fill="#01ff70" stroke-opacity="0" stroke="#000000" stroke-width="0" stroke-linecap="square" stroke-linejoin="bevel" d="M14.397 2.3185L14.397 2.3185C15.016 3.0345 15.443 3.7935 15.678 4.5945C15.908 5.4005 15.968 6.1935 15.86 6.9755C15.747 7.7515 15.489 8.4725 15.086 9.1385L15.086 9.1385C15.578 8.9425 16.119 8.9065 16.71 9.0295C17.306 9.1575 17.882 9.3815 18.441 9.7005L18.441 9.7005L21.831 11.5275C22.399 11.8385 22.868 12.0495 23.238 12.1615C23.612 12.2785 23.973 12.3285 24.319 12.3105L24.319 12.3105C24.367 12.6925 24.288 13.0905 24.084 13.5055C23.879 13.9205 23.62 14.2635 23.307 14.5345L23.307 14.5345C22.843 14.9355 22.392 15.1015 21.953 15.0315C21.514 14.9615 20.983 14.7555 20.36 14.4125L20.36 14.4125L16.475 12.2735C15.816 11.9095 15.166 11.6875 14.524 11.6065C13.887 11.5225 13.206 11.7945 12.48 12.4225L12.48 12.4225L9.568 14.9405L7.887 12.9965C8.217 12.6845 8.599 12.3325 9.035 11.9385C9.466 11.5395 9.893 11.1525 10.317 10.7775C10.742 10.3925 11.106 10.0695 11.408 9.8075L11.408 9.8075C12.169 9.1495 12.634 8.5045 12.803 7.8735C12.972 7.2335 12.95 6.6315 12.736 6.0685C12.517 5.4995 12.214 4.9905 11.826 4.5425L11.826 4.5425C11.416 4.0685 10.948 3.6845 10.421 3.3915C9.898 3.1035 9.311 2.9995 8.657 3.0785C8.009 3.1545 7.304 3.5215 6.542 4.1805L6.542 4.1805C6.315 4.3765 6.053 4.6035 5.756 4.8605C5.459 5.1175 5.149 5.3815 4.827 5.6505C4.514 5.9205 4.22 6.1665 3.944 6.3875L3.944 6.3875L16.114 20.4625C15.949 20.6585 15.761 20.8595 15.553 21.0675C15.344 21.2745 15.144 21.4605 14.952 21.6265L14.952 21.6265C14.765 21.7875 14.555 21.9565 14.32 22.1335C14.085 22.3105 13.861 22.4645 13.649 22.5945L13.649 22.5945L0 6.8105L0.027 6.5355C0.887 5.7565 1.729 4.9975 2.553 4.2595C3.378 3.5115 4.186 2.7945 4.977 2.1105L4.977 2.1105C6.056 1.1775 7.15 0.552495 8.261 0.235495C9.367 -0.085505 10.443 -0.078505 11.491 0.257495C12.534 0.597495 13.503 1.2845 14.397 2.3185Z" sodipodi:nodetypes="cccccccccccccccccccccccccccccccccccccccccccccccccccccccc"/>
   <path id="shape6" transform="translate(64.117, 10.1066066838866)" fill="#01ff70" stroke-opacity="0" stroke="#000000" stroke-width="0" stroke-linecap="square" stroke-linejoin="bevel" d="M0 4.18339L0.097 3.92539C1.1 3.41139 2.074 2.91439 3.019 2.43439C3.962 1.94939 4.895 1.48239 5.819 1.03639L5.819 1.03639C7.175 0.380393 8.401 0.0363933 9.495 0.00239332C10.584 -0.0276067 11.531 0.224393 12.338 0.760393C13.145 1.29539 13.799 2.08239 14.301 3.12039L14.301 3.12039C14.643 3.82839 14.804 4.55839 14.782 5.30939C14.763 6.05139 14.575 6.74939 14.218 7.40339C13.858 8.05139 13.339 8.58739 12.663 9.01039L12.663 9.01039L12.467 8.60539C13.244 8.25239 14.088 8.12939 14.999 8.23639C15.904 8.34639 16.757 8.67139 17.557 9.20939C18.349 9.74439 18.971 10.4804 19.424 11.4164L19.424 11.4164C19.926 12.4544 20.142 13.4904 20.072 14.5234C20.005 15.5634 19.6 16.5544 18.856 17.4994C18.113 18.4434 16.971 19.2884 15.429 20.0344L15.429 20.0344C14.313 20.5744 13.27 21.0674 12.301 21.5134C11.338 21.9564 10.329 22.4194 9.273 22.9004L9.273 22.9004L9.011 22.8164ZM3.87 4.72239L10.991 19.4484C11.573 19.1674 12.146 18.8824 12.711 18.5944C13.272 18.3154 13.817 18.0484 14.345 17.7934L14.345 17.7934C15.095 17.4304 15.656 17.0294 16.029 16.5904C16.395 16.1544 16.624 15.7064 16.713 15.2484C16.809 14.7874 16.81 14.3394 16.717 13.9024C16.627 13.4724 16.497 13.0794 16.326 12.7254L16.326 12.7254C16.103 12.2634 15.758 11.8264 15.292 11.4154C14.826 11.0034 14.232 10.7474 13.509 10.6454C12.786 10.5434 11.929 10.7314 10.939 11.2104L10.939 11.2104L6.582 13.3174L5.477 11.0314L9.554 9.05939C10.418 8.64139 11.01 8.17339 11.33 7.65539C11.653 7.14439 11.794 6.62439 11.753 6.09639C11.712 5.56839 11.585 5.08239 11.37 4.63739L11.37 4.63739C11.155 4.19339 10.858 3.79339 10.478 3.43639C10.104 3.07639 9.623 2.86139 9.033 2.79139C8.444 2.72139 7.714 2.89639 6.844 3.31739L6.844 3.31739C6.46 3.50339 5.983 3.73339 5.413 4.00939C4.843 4.28539 4.328 4.52239 3.87 4.72239Z" sodipodi:nodetypes="cccccccccccccccccccccccccccccccccccccccccccccccccccccc"/>
   <path id="shape7" transform="translate(95.5097346491228, 0.933156321111682)" fill="#01ff70" stroke-opacity="0" stroke="#000000" stroke-width="0" stroke-linecap="square" stroke-linejoin="bevel" d="M3.65227 11.7768L3.65227 11.7768C3.81227 12.7028 4.04427 13.6298 4.34627 14.5588C4.65027 15.4938 5.05327 16.3378 5.55527 17.0888C6.06427 17.8398 6.69327 18.4078 7.44327 18.7918C8.19927 19.1748 9.10927 19.2748 10.1733 19.0908L10.1733 19.0908C11.2243 18.9088 12.0383 18.5108 12.6153 17.8978C13.1993 17.2828 13.6013 16.5368 13.8213 15.6598C14.0413 14.7828 14.1343 13.8538 14.1003 12.8718C14.0733 11.8958 13.9803 10.9448 13.8203 10.0178L13.8203 10.0178C13.6613 9.09784 13.4303 8.17384 13.1283 7.24584C12.8313 6.30984 12.4323 5.46884 11.9303 4.72384C11.4293 3.97884 10.8003 3.41384 10.0453 3.03084C9.29627 2.65284 8.39727 2.55484 7.34527 2.73584L7.34527 2.73584C6.28127 2.91984 5.45727 3.31584 4.87227 3.92484C4.29527 4.53884 3.89227 5.28184 3.66427 6.15284C3.44227 7.02284 3.34627 7.94984 3.37427 8.93284C3.40127 9.90884 3.49427 10.8568 3.65227 11.7768ZM0.273265 12.3608L0.273265 12.3608C-0.0797346 10.3178 -0.0907346 8.43584 0.240265 6.71484C0.570265 4.98684 1.28227 3.54484 2.37427 2.38784C3.46627 1.23184 4.97427 0.486844 6.89927 0.154844L6.89927 0.154844C8.34427 -0.0951563 9.64527 -0.0421563 10.8023 0.311844C11.9543 0.673844 12.9653 1.28084 13.8363 2.13084C14.7013 2.98884 15.4173 4.03884 15.9843 5.28084C16.5573 6.52084 16.9753 7.90284 17.2393 9.42684L17.2393 9.42684C17.5943 11.4828 17.6043 13.3748 17.2673 15.1048C16.9313 16.8408 16.2213 18.2858 15.1353 19.4408C14.0433 20.5968 12.5383 21.3408 10.6203 21.6728L10.6203 21.6728C9.16227 21.9248 7.85427 21.8738 6.69727 21.5188C5.53927 21.1578 4.52727 20.5478 3.66127 19.6898C2.79427 18.8248 2.07827 17.7718 1.51127 16.5298C0.950265 15.2808 0.537265 13.8908 0.273265 12.3608Z" sodipodi:nodetypes="cccccccccccccccccccccccccccccccccccccccc"/>
   <path id="shape8" transform="translate(127.743, 0.000444444444446683)" fill="#01ff70" stroke-opacity="0" stroke="#000000" stroke-width="0" stroke-linecap="square" stroke-linejoin="bevel" d="M0 20.9276L2.116 0.0275556C2.373 -0.000444444 2.702 -0.00644444 3.103 0.00655556C3.504 0.0205556 3.827 0.0395556 4.072 0.0645556L4.072 0.0645556C4.331 0.0905556 4.638 0.135556 4.993 0.197556C5.349 0.253556 5.688 0.318556 6.009 0.390556L6.009 0.390556L4.769 4.10456L4.516 4.11956C4.483 4.83956 4.443 5.63956 4.394 6.51856C4.339 7.39756 4.279 8.28256 4.215 9.17356C4.151 10.0716 4.081 10.8986 4.004 11.6546L4.004 11.6546L3.035 21.2346C2.752 21.2466 2.484 21.2496 2.23 21.2436C1.969 21.2376 1.733 21.2236 1.52 21.2016L1.52 21.2016C1.314 21.1806 1.073 21.1466 0.797 21.0986C0.514 21.0496 0.248 20.9926 0 20.9276ZM11.371 22.0786L6.146 8.56556C5.851 7.77156 5.577 7.00056 5.325 6.25156C5.073 5.50256 4.834 4.78456 4.609 4.09856L4.609 4.09856L3.263 2.10256L6.009 0.390556L11.195 13.8906C11.498 14.7316 11.784 15.5516 12.051 16.3486C12.312 17.1456 12.56 17.8706 12.796 18.5246L12.796 18.5246L14.235 20.3886ZM17.223 1.39556L17.395 1.58356L15.283 22.4446C15.019 22.4716 14.697 22.4756 14.317 22.4576C13.936 22.4456 13.597 22.4246 13.298 22.3946L13.298 22.3946C12.993 22.3636 12.672 22.3216 12.337 22.2666C12.007 22.2136 11.685 22.1506 11.371 22.0786L11.371 22.0786L12.626 18.5176L12.887 18.5136C12.923 17.6936 12.968 16.8196 13.022 15.8946C13.083 14.9626 13.148 14.0516 13.218 13.1606C13.288 12.2696 13.359 11.4726 13.43 10.7696L13.43 10.7696L14.202 3.13956C14.275 2.42356 14.45 1.91856 14.728 1.62556C15.012 1.33256 15.486 1.21956 16.149 1.28656L16.149 1.28656Z" sodipodi:nodetypes="ccccccccccccccccccccccccccccccccccccccccccccccccccccc"/>
   <path id="shape9" transform="translate(156.128, 7.876)" fill="#01ff70" stroke-opacity="0" stroke="#000000" stroke-width="0" stroke-linecap="square" stroke-linejoin="bevel" d="M0 18.587L9.859 0C10.228 0.088 10.608 0.209 10.998 0.364C11.388 0.519 11.706 0.65 11.951 0.757L11.951 0.757C12.196 0.863 12.486 0.997 12.823 1.158C13.166 1.322 13.492 1.507 13.802 1.714L13.802 1.714L12.641 11.731C12.615 11.974 12.565 12.323 12.491 12.778C12.423 13.235 12.343 13.728 12.252 14.255C12.161 14.782 12.076 15.269 11.999 15.715C11.915 16.158 11.851 16.483 11.805 16.688L11.805 16.688L11.961 16.756C12.074 16.58 12.264 16.31 12.531 15.946C12.804 15.585 13.103 15.191 13.426 14.765C13.749 14.339 14.058 13.946 14.352 13.587C14.64 13.225 14.864 12.952 15.025 12.768L15.025 12.768L21.568 5.092C21.955 5.188 22.317 5.301 22.652 5.432C22.987 5.563 23.28 5.683 23.531 5.792L23.531 5.792C23.769 5.896 24.075 6.036 24.449 6.214C24.829 6.394 25.183 6.591 25.511 6.806L25.511 6.806L18.641 26.693C18.398 26.667 18.13 26.605 17.838 26.508C17.54 26.408 17.269 26.304 17.025 26.197L17.025 26.197C16.793 26.096 16.569 25.992 16.354 25.884C16.148 25.773 15.94 25.649 15.73 25.514L15.73 25.514L19.559 14.903C19.754 14.37 19.984 13.758 20.249 13.066C20.522 12.371 20.798 11.669 21.076 10.962C21.355 10.255 21.606 9.619 21.83 9.054L21.83 9.054L21.674 8.986L12.092 20.389C11.856 20.33 11.59 20.247 11.295 20.141C11.006 20.037 10.745 19.935 10.513 19.833L10.513 19.833C10.293 19.737 10.046 19.619 9.773 19.479C9.5 19.338 9.261 19.202 9.057 19.07L9.057 19.07L10.872 4.289L10.717 4.222C10.457 4.77 10.163 5.388 9.835 6.073C9.508 6.759 9.183 7.439 8.861 8.114C8.541 8.782 8.25 9.368 7.987 9.871L7.987 9.871L2.819 19.901C2.589 19.845 2.357 19.776 2.123 19.696C1.892 19.61 1.657 19.515 1.418 19.411L1.418 19.411C1.167 19.302 0.91 19.175 0.646 19.032C0.382 18.888 0.166 18.74 0 18.587Z" sodipodi:nodetypes="ccccccccccccccccccccccccccccccccccccccccccccccccccccccccccc"/>
   <path id="shape10" transform="translate(188.204958823364, 29.2303109243697)" fill="#01ff70" stroke-opacity="0" stroke="#000000" stroke-width="0" stroke-linecap="square" stroke-linejoin="bevel" d="M6.17904 6.92869L6.17904 6.92869C5.56104 7.63669 4.98604 8.40069 4.45604 9.22069C3.92104 10.0457 3.52004 10.8897 3.25204 11.7537C2.98904 12.6217 2.94504 13.4677 3.11804 14.2927C3.29704 15.1217 3.79304 15.8917 4.60604 16.6017L4.60604 16.6017C5.40904 17.3037 6.23104 17.6847 7.07104 17.7467C7.91604 17.8127 8.74904 17.6547 9.56904 17.2727C10.389 16.8917 11.169 16.3787 11.91 15.7337C12.651 15.0977 13.331 14.4267 13.95 13.7187L13.95 13.7187C14.564 13.0157 15.136 12.2547 15.666 11.4347C16.206 10.6137 16.608 9.77469 16.871 8.91569C17.134 8.05669 17.177 7.21369 16.998 6.38469C16.82 5.56569 16.329 4.80469 15.527 4.10269L15.527 4.10269C14.714 3.39169 13.887 3.00169 13.045 2.93069C12.205 2.86969 11.374 3.02469 10.554 3.39569C9.73804 3.77169 8.95804 4.28069 8.21204 4.92169C7.47104 5.55769 6.79304 6.22669 6.17904 6.92869ZM3.59704 4.67269L3.59704 4.67269C4.96104 3.11169 6.41604 1.91769 7.96104 1.09069C9.51104 0.258689 11.079 -0.0973109 12.665 0.0226891C14.251 0.142689 15.779 0.844689 17.25 2.12969L17.25 2.12969C18.354 3.09469 19.133 4.13769 19.587 5.26069C20.031 6.38369 20.197 7.55069 20.085 8.76269C19.964 9.97569 19.599 11.1927 18.992 12.4147C18.39 13.6407 17.58 14.8367 16.562 16.0017L16.562 16.0017C15.189 17.5727 13.725 18.7727 12.17 19.5997C10.61 20.4327 9.04004 20.7907 7.46004 20.6747C5.87404 20.5547 4.34804 19.8547 2.88204 18.5737L2.88204 18.5737C1.76804 17.5997 0.984041 16.5517 0.530041 15.4307C0.0810412 14.3037 -0.0829588 13.1337 0.0390412 11.9207C0.165041 10.7027 0.531041 9.48269 1.13904 8.26069C1.75604 7.03769 2.57504 5.84169 3.59704 4.67269Z" sodipodi:nodetypes="cccccccccccccccccccccccccccccccccccccccc"/>
   <path id="shape11" transform="translate(207.786, 50.076)" fill="#01ff70" stroke-opacity="0" stroke="#000000" stroke-width="0" stroke-linecap="square" stroke-linejoin="bevel" d="M14.262 4.588L12.238 1.527C12.403 1.354 12.583 1.191 12.778 1.038C12.967 0.889 13.148 0.757 13.32 0.644L13.32 0.644C13.487 0.534 13.676 0.421 13.887 0.305C14.093 0.193 14.313 0.091 14.548 0L14.548 0L22.357 11.81C22.234 11.963 22.083 12.115 21.903 12.266C21.727 12.422 21.552 12.558 21.38 12.672L21.38 12.672C20.935 12.966 20.536 13.051 20.181 12.925C19.83 12.805 19.482 12.484 19.136 11.961L19.136 11.961L18.023 10.277C17.909 10.105 17.748 9.855 17.54 9.529C17.342 9.205 17.185 8.956 17.072 8.784L17.072 8.784L15.263 6.048C15.142 5.865 14.971 5.618 14.75 5.308C14.535 4.995 14.372 4.755 14.262 4.588ZM0 16.139L13.361 7.305C13.711 7.073 14.025 6.866 14.304 6.682C14.582 6.498 14.902 6.287 15.263 6.048L15.263 6.048L16.397 5.298L18.195 8.017L17.061 8.767C16.7 9.006 16.382 9.22 16.107 9.41C15.833 9.599 15.52 9.81 15.17 10.041L15.17 10.041L1.808 18.875C1.631 18.68 1.454 18.466 1.276 18.232C1.094 17.993 0.939 17.776 0.809 17.581L0.809 17.581C0.666 17.364 0.521 17.128 0.377 16.873C0.232 16.617 0.106 16.373 0 16.139Z" sodipodi:nodetypes="ccccccccccccccccccccccccccccccccccccccc"/>
   <path id="shape12" transform="translate(218.374783061342, 77.5049999999999)" fill="#01ff70" stroke-opacity="0" stroke="#000000" stroke-width="0" stroke-linecap="square" stroke-linejoin="bevel" d="M1.39122 6.553L19.0522 0L19.3092 0.118L20.3562 2.94L17.8342 3.875C17.4282 4.026 17.0982 4.152 16.8442 4.253C16.5922 4.361 16.2702 4.487 15.8762 4.634L15.8762 4.634L4.62722 8.807C4.37122 8.902 4.12822 8.985 3.89822 9.056C3.67722 9.131 3.43222 9.218 3.16322 9.318L3.16322 9.318L0.604217 10.268L0.142217 9.021C-0.0567831 8.484 -0.0467831 7.993 0.171217 7.549C0.390217 7.105 0.797217 6.773 1.39122 6.553ZM12.5372 7.909L14.5512 13.337C14.3702 13.461 14.1652 13.58 13.9372 13.693C13.7002 13.802 13.5012 13.887 13.3382 13.947L13.3382 13.947C13.1632 14.012 12.9532 14.079 12.7092 14.149C12.4682 14.21 12.2332 14.255 12.0012 14.283L12.0012 14.283L9.98822 8.855C9.90522 8.63 9.80322 8.348 9.68422 8.008C9.56122 7.677 9.43622 7.329 9.30722 6.964C9.17922 6.599 9.06422 6.272 8.96422 5.982L8.96422 5.982L11.4492 5.061C11.5562 5.348 11.6792 5.672 11.8202 6.032C11.9612 6.392 12.0962 6.737 12.2242 7.066C12.3492 7.403 12.4542 7.685 12.5372 7.909ZM19.9702 1.899L23.6222 11.742C23.4092 11.878 23.2022 11.99 23.0002 12.08C22.7962 12.163 22.6072 12.237 22.4322 12.301L22.4322 12.301C22.2632 12.364 22.0442 12.424 21.7732 12.481C21.5032 12.539 21.2362 12.567 20.9732 12.565L20.9732 12.565L18.4342 5.722C18.3512 5.497 18.2462 5.216 18.1212 4.878C17.9982 4.547 17.8732 4.199 17.7442 3.834C17.6102 3.472 17.4952 3.144 17.4012 2.852L17.4012 2.852ZM3.92622 11.2L6.69422 18.662C5.75722 19.01 5.03522 19.114 4.52822 18.975C4.01522 18.838 3.61422 18.379 3.32422 17.599L3.32422 17.599L0.218217 9.227L2.70222 8.306C2.89922 8.759 3.09622 9.205 3.29522 9.643C3.49622 10.088 3.70622 10.607 3.92622 11.2Z" sodipodi:nodetypes="cccccccccccccccccccccccccccccccccccccccccccccccccccccccc"/>
   <path id="shape13" transform="translate(9.08499791666668, 153.42758111397)" fill="#01ff70" stroke-opacity="0" stroke="#000000" stroke-width="0" stroke-linecap="square" stroke-linejoin="bevel" d="M15.489 11.9624L15.489 11.9624C16.221 11.7124 16.914 11.3404 17.57 10.8484C18.226 10.3564 18.694 9.72742 18.975 8.96242C19.258 8.20342 19.218 7.29442 18.856 6.23442L18.856 6.23442C18.327 4.68942 17.254 3.75642 15.637 3.43642C14.018 3.10942 11.902 3.39342 9.291 4.28642L9.291 4.28642C6.869 5.11542 5.149 6.18242 4.131 7.48942C3.115 8.80242 2.866 10.2154 3.384 11.7294L3.384 11.7294C3.695 12.6374 4.191 13.4614 4.873 14.1994C5.562 14.9364 6.406 15.6014 7.406 16.1964L7.406 16.1964C7.298 16.6214 7.106 17.0494 6.831 17.4824C6.55 17.9164 6.246 18.2424 5.919 18.4604L5.919 18.4604C5.189 18.0974 4.475 17.6164 3.776 17.0164C3.071 16.4194 2.433 15.7074 1.862 14.8814C1.284 14.0574 0.823002 13.1414 0.478002 12.1314L0.478002 12.1314C-0.000997917 10.7314 -0.119998 9.44742 0.121002 8.28042C0.369002 7.11042 0.879002 6.05942 1.652 5.12542C2.433 4.19642 3.392 3.38542 4.529 2.69342C5.66 2.00342 6.878 1.43542 8.183 0.988419L8.183 0.988419C10.605 0.159419 12.719 -0.147581 14.525 0.0654189C16.323 0.274419 17.799 0.861419 18.953 1.82542C20.101 2.79242 20.922 3.99742 21.417 5.44242L21.417 5.44242C21.911 6.88642 22.072 8.23042 21.898 9.47342C21.716 10.7124 21.289 11.7704 20.617 12.6484C19.943 13.5204 19.108 14.1264 18.111 14.4674L18.111 14.4674C17.588 14.6464 17.115 14.6564 16.695 14.4974C16.272 14.3324 15.953 13.9344 15.737 13.3044L15.737 13.3044C15.655 13.0644 15.597 12.8454 15.564 12.6444C15.537 12.4424 15.512 12.2144 15.489 11.9624Z" sodipodi:nodetypes="cccccccccccccccccccccccccccccccccccccccc"/>
   <path id="shape14" transform="translate(19.506, 179.848)" fill="#01ff70" stroke-opacity="0" stroke="#000000" stroke-width="0" stroke-linecap="square" stroke-linejoin="bevel" d="M0.089 6.119L21.306 0C21.486 0.191 21.691 0.435 21.919 0.732C22.147 1.028 22.339 1.289 22.494 1.514L22.494 1.514C22.641 1.728 22.813 1.995 23.007 2.313C23.202 2.632 23.342 2.9 23.427 3.117L23.427 3.117L10.109 20.731C9.852 20.616 9.598 20.435 9.346 20.187C9.095 19.939 8.871 19.673 8.674 19.387L8.674 19.387C8.375 18.953 8.244 18.55 8.279 18.178C8.314 17.806 8.554 17.337 8.999 16.773L8.999 16.773L15.945 7.853C16.52 7.101 17.142 6.317 17.81 5.502C18.478 4.686 19.085 3.957 19.63 3.314L19.63 3.314L19.545 3.191C19.1 3.368 18.608 3.552 18.07 3.745C17.527 3.932 17.002 4.116 16.494 4.295C15.983 4.469 15.541 4.615 15.169 4.734L15.169 4.734L1.649 8.844C1.499 8.696 1.346 8.527 1.189 8.335C1.027 8.147 0.876 7.951 0.737 7.748L0.737 7.748C0.571 7.506 0.427 7.257 0.307 7C0.181 6.747 0.079 6.51 0 6.289L0 6.289ZM10.261 12.275L7.841 8.758C7.788 8.681 7.678 8.522 7.512 8.28C7.351 8.035 7.189 7.786 7.024 7.536C6.859 7.285 6.751 7.121 6.698 7.044L6.698 7.044L5.83 5.784L8.616 5.105L9.381 6.217C9.438 6.299 9.542 6.446 9.695 6.656C9.842 6.87 9.993 7.082 10.146 7.293C10.295 7.498 10.4 7.644 10.46 7.732L10.46 7.732L12.206 10.269C12.259 10.346 12.358 10.496 12.504 10.719C12.646 10.937 12.794 11.158 12.949 11.384C13.102 11.618 13.205 11.774 13.258 11.851L13.258 11.851L14.046 12.996L12.338 15.24L11.471 13.98C11.411 13.892 11.293 13.727 11.116 13.483C10.937 13.234 10.761 12.991 10.59 12.753C10.424 12.511 10.314 12.352 10.261 12.275Z" sodipodi:nodetypes="cccccccccccccccccccccccccccccccccccccccccccccccccccccccc"/>
   <path id="shape15" transform="translate(40.707, 196.593)" fill="#01ff70" stroke-opacity="0" stroke="#000000" stroke-width="0" stroke-linecap="square" stroke-linejoin="bevel" d="M20.298 13.7L20.298 13.7C19.679 14.416 18.985 14.948 18.217 15.297C17.448 15.646 16.667 15.821 15.873 15.822C15.079 15.823 14.324 15.672 13.607 15.369L13.607 15.369C13.877 15.831 13.991 16.367 13.951 16.975C13.91 17.583 13.772 18.186 13.537 18.784L13.537 18.784L12.207 22.432C11.982 23.049 11.841 23.548 11.784 23.93C11.722 24.317 11.725 24.681 11.792 25.022L11.792 25.022C11.421 25.125 11.011 25.105 10.562 24.962C10.122 24.819 9.745 24.613 9.432 24.342L9.432 24.342C8.963 23.937 8.731 23.512 8.737 23.067C8.742 22.613 8.869 22.053 9.118 21.388L9.118 21.388L10.686 17.205C10.956 16.495 11.084 15.817 11.069 15.171C11.055 14.525 10.685 13.887 9.959 13.26L9.959 13.26L7.025 10.723L8.718 8.764C9.079 9.05 9.486 9.379 9.938 9.752C10.395 10.121 10.842 10.49 11.281 10.86C11.723 11.225 12.098 11.54 12.406 11.806L12.406 11.806C13.172 12.469 13.885 12.838 14.542 12.913C15.195 12.993 15.788 12.884 16.319 12.585C16.855 12.281 17.316 11.905 17.704 11.457L17.704 11.457C18.118 10.978 18.432 10.457 18.647 9.892C18.866 9.323 18.888 8.721 18.714 8.087C18.54 7.452 18.07 6.803 17.304 6.141L17.304 6.141C17.077 5.945 16.812 5.716 16.509 5.454C16.211 5.197 15.904 4.931 15.587 4.656C15.274 4.376 14.988 4.116 14.729 3.875L14.729 3.875L2.481 18.042C2.258 17.902 2.029 17.744 1.794 17.568C1.559 17.391 1.343 17.218 1.147 17.048L1.147 17.048C0.96 16.887 0.763 16.703 0.554 16.495C0.345 16.288 0.161 16.089 0 15.897L0 15.897L13.739 0.006L14.008 0C14.912 0.738 15.792 1.463 16.647 2.176C17.507 2.893 18.336 3.596 19.132 4.285L19.132 4.285C20.216 5.222 21 6.222 21.484 7.283C21.962 8.34 22.109 9.414 21.924 10.505C21.743 11.591 21.201 12.656 20.298 13.7Z" sodipodi:nodetypes="cccccccccccccccccccccccccccccccccccccccccccccccccccccccc"/>
   <path id="shape16" transform="translate(66.39, 211.774)" fill="#01ff70" stroke-opacity="0" stroke="#000000" stroke-width="0" stroke-linecap="square" stroke-linejoin="bevel" d="M9.074 0.075L9.332 0C10.367 0.463 11.368 0.918 12.337 1.364C13.306 1.81 14.255 2.259 15.186 2.709L15.186 2.709C16.554 3.371 17.591 4.12 18.296 4.958C18.999 5.801 19.394 6.707 19.481 7.674C19.559 8.645 19.346 9.652 18.841 10.697L18.841 10.697C18.496 11.411 18.022 11.993 17.42 12.442C16.818 12.891 16.149 13.179 15.414 13.304C14.673 13.427 13.927 13.355 13.175 13.088L13.175 13.088L13.371 12.683C14.136 13.075 14.76 13.662 15.241 14.442C15.719 15.229 15.996 16.103 16.072 17.065C16.144 18.033 15.954 18.985 15.501 19.922L15.501 19.922C14.996 20.966 14.312 21.783 13.449 22.372C12.589 22.971 11.554 23.273 10.344 23.28C9.137 23.281 7.756 22.905 6.202 22.154L6.202 22.154C5.08 21.611 4.04 21.097 3.082 20.612C2.131 20.13 1.136 19.622 0.098 19.09L0.098 19.09L0 18.832ZM11.064 3.469L3.897 18.285C4.479 18.567 5.06 18.844 5.639 19.116C6.215 19.38 6.767 19.639 7.294 19.895L7.294 19.895C8.05 20.261 8.716 20.453 9.292 20.472C9.868 20.491 10.366 20.395 10.786 20.185C11.203 19.965 11.558 19.684 11.849 19.343C12.134 18.999 12.362 18.651 12.533 18.297L12.533 18.297C12.757 17.835 12.883 17.289 12.914 16.66C12.95 16.033 12.784 15.405 12.415 14.775C12.04 14.142 11.354 13.584 10.358 13.102L10.358 13.102L5.975 10.982L7.089 8.678L11.194 10.663C12.058 11.081 12.795 11.256 13.405 11.189C14.009 11.118 14.509 10.905 14.904 10.547C15.296 10.181 15.599 9.776 15.814 9.332L15.814 9.332C16.032 8.882 16.162 8.397 16.206 7.878C16.259 7.356 16.127 6.84 15.81 6.332C15.499 5.826 14.906 5.362 14.03 4.938L14.03 4.938C13.64 4.749 13.16 4.517 12.59 4.241C12.02 3.965 11.511 3.708 11.064 3.469Z" sodipodi:nodetypes="cccccccccccccccccccccccccccccccccccccccccccccccccccccc"/>
   <path id="shape17" transform="translate(96.3526729679758, 221.556694305606)" fill="#01ff70" stroke-opacity="0" stroke="#000000" stroke-width="0" stroke-linecap="square" stroke-linejoin="bevel" d="M3.68733 10.0873L3.68733 10.0873C3.52733 11.0133 3.43333 11.9683 3.40533 12.9513C3.37633 13.9403 3.47533 14.8743 3.70133 15.7523C3.92733 16.6373 4.33133 17.3903 4.91433 18.0113C5.49633 18.6333 6.32333 19.0363 7.39333 19.2223L7.39333 19.2223C8.45033 19.4053 9.36133 19.3023 10.1253 18.9133C10.8823 18.5233 11.5133 17.9493 12.0173 17.1913C12.5193 16.4393 12.9233 15.5923 13.2273 14.6503C13.5313 13.7153 13.7633 12.7843 13.9233 11.8583L13.9233 11.8583C14.0833 10.9323 14.1783 9.97431 14.2083 8.98531C14.2363 8.00231 14.1403 7.07231 13.9193 6.19531C13.6993 5.31831 13.2973 4.57231 12.7133 3.95731C12.1233 3.34131 11.2993 2.94131 10.2423 2.75931L10.2423 2.75931C9.17133 2.57431 8.25833 2.67331 7.50133 3.05631C6.74533 3.43931 6.11233 4.00631 5.60433 4.75731C5.09533 5.50831 4.68933 6.35131 4.38533 7.28531C4.08033 8.22731 3.84733 9.16131 3.68733 10.0873ZM0.278327 9.49731L0.278327 9.49731C0.635327 7.43531 1.26333 5.64231 2.16233 4.12131C3.06133 2.59931 4.22333 1.47431 5.64833 0.746306C7.07933 0.0203057 8.76033 -0.176694 10.6923 0.158306L10.6923 0.158306C12.1503 0.410306 13.3673 0.902306 14.3433 1.63231C15.3133 2.36131 16.0643 3.27931 16.5973 4.38631C17.1303 5.48631 17.4583 6.72031 17.5803 8.08731C17.7013 9.46131 17.6283 10.9163 17.3623 12.4533L17.3623 12.4533C17.0053 14.5153 16.3733 16.3103 15.4663 17.8383C14.5663 19.3673 13.4033 20.4953 11.9783 21.2233C10.5603 21.9523 8.88233 22.1483 6.94533 21.8133L6.94533 21.8133C5.48033 21.5603 4.26033 21.0683 3.28333 20.3373C2.30733 19.6073 1.55233 18.6883 1.02033 17.5813C0.488327 16.4743 0.164327 15.2343 0.051327 13.8623C-0.062673 12.4893 0.013327 11.0343 0.278327 9.49731Z" sodipodi:nodetypes="cccccccccccccccccccccccccccccccccccccccc"/>
   <path id="shape18" transform="translate(127.143, 221.696)" fill="#01ff70" stroke-opacity="0" stroke="#000000" stroke-width="0" stroke-linecap="square" stroke-linejoin="bevel" d="M2.123 22.722L0 1.682C0.247 1.61 0.572 1.541 0.974 1.473C1.369 1.406 1.69 1.361 1.934 1.336L1.934 1.336C2.193 1.31 2.502 1.289 2.863 1.272C3.23 1.255 3.578 1.25 3.906 1.257L3.906 1.257L3.437 5.174L3.193 5.239C3.306 5.958 3.423 6.757 3.545 7.635C3.673 8.506 3.796 9.392 3.913 10.291C4.03 11.184 4.127 12.011 4.204 12.774L4.204 12.774L5.177 22.414C4.902 22.482 4.637 22.539 4.38 22.585C4.123 22.631 3.889 22.665 3.677 22.686L3.677 22.686C3.471 22.707 3.225 22.722 2.938 22.73C2.651 22.739 2.379 22.736 2.123 22.722ZM13.563 21.568L5.681 9.289C5.24 8.57 4.817 7.865 4.413 7.176C4.009 6.493 3.631 5.835 3.279 5.2L3.279 5.2L1.55 3.505L3.906 1.257L11.736 13.521C12.21 14.297 12.657 15.049 13.079 15.778C13.501 16.513 13.893 17.176 14.255 17.769L14.255 17.769L16.05 19.327ZM15.175 0L15.372 0.151L17.49 21.141C17.237 21.22 16.922 21.292 16.547 21.357C16.171 21.415 15.834 21.459 15.535 21.489L15.535 21.489C15.223 21.52 14.897 21.543 14.557 21.558C14.217 21.572 13.885 21.576 13.563 21.568L13.563 21.568L14.088 17.806L14.344 17.75C14.208 16.933 14.077 16.062 13.949 15.137C13.821 14.205 13.699 13.293 13.583 12.401C13.473 11.514 13.383 10.716 13.311 10.006L13.311 10.006L12.536 2.326C12.463 1.603 12.537 1.07 12.756 0.726C12.976 0.382 13.421 0.177 14.091 0.109L14.091 0.109Z" sodipodi:nodetypes="ccccccccccccccccccccccccccccccccccccccccccccccccccccc"/>
   <path id="shape19" transform="translate(155.393, 210.728)" fill="#01ff70" stroke-opacity="0" stroke="#000000" stroke-width="0" stroke-linecap="square" stroke-linejoin="bevel" d="M6.901 26.858L0 6.843C0.313 6.627 0.661 6.432 1.043 6.259C1.429 6.077 1.744 5.932 1.989 5.826L1.989 5.826C2.234 5.72 2.533 5.597 2.887 5.458C3.232 5.315 3.59 5.203 3.961 5.121L3.961 5.121L10.533 12.84C10.696 13.031 10.921 13.307 11.209 13.669C11.494 14.04 11.801 14.437 12.131 14.861C12.454 15.287 12.754 15.684 13.029 16.051C13.299 16.421 13.493 16.692 13.613 16.866L13.613 16.866L13.769 16.798C13.717 16.595 13.651 16.268 13.57 15.815C13.484 15.366 13.395 14.877 13.304 14.35C13.219 13.82 13.141 13.323 13.071 12.86C13.009 12.4 12.964 12.045 12.935 11.796L12.935 11.796L11.783 1.722C12.114 1.498 12.444 1.311 12.772 1.161C13.097 1.005 13.388 0.872 13.644 0.76L13.644 0.76C13.882 0.656 14.197 0.527 14.587 0.372C14.975 0.211 15.361 0.087 15.745 0L15.745 0L25.672 18.699C25.481 18.862 25.25 19.017 24.98 19.164C24.703 19.313 24.443 19.441 24.198 19.547L24.198 19.547C23.96 19.651 23.728 19.744 23.502 19.828C23.28 19.903 23.048 19.971 22.806 20.032L22.806 20.032L17.621 9.934C17.365 9.428 17.071 8.836 16.74 8.158C16.418 7.484 16.092 6.801 15.762 6.108C15.432 5.416 15.137 4.795 14.876 4.247L14.876 4.247L14.72 4.315L16.533 19.194C16.323 19.329 16.081 19.467 15.808 19.607C15.529 19.75 15.273 19.872 15.04 19.974L15.04 19.974C14.82 20.07 14.562 20.171 14.267 20.277C13.978 20.381 13.715 20.462 13.479 20.521L13.479 20.521L3.845 9.042L3.689 9.11C3.912 9.674 4.165 10.313 4.446 11.027C4.727 11.741 5.004 12.445 5.278 13.14C5.554 13.841 5.786 14.46 5.975 14.996L5.975 14.996L9.813 25.68C9.609 25.812 9.398 25.937 9.179 26.054C8.958 26.165 8.728 26.272 8.49 26.375L8.49 26.375C8.233 26.487 7.962 26.59 7.676 26.685C7.39 26.78 7.132 26.838 6.901 26.859Z" sodipodi:nodetypes="cccccccccccccccccccccccccccccccccccccccccccccccccccccccccccc"/>
   <path id="shape20" transform="translate(184.613869012697, 195.6505533463)" fill="#01ff70" stroke-opacity="0" stroke="#000000" stroke-width="0" stroke-linecap="square" stroke-linejoin="bevel" d="M6.19513 13.8264L6.19513 13.8264C6.81313 14.5344 7.49513 15.2084 8.24113 15.8494C8.99113 16.4954 9.77913 17.0064 10.6031 17.3834C11.4321 17.7654 12.2721 17.9254 13.1221 17.8654C13.9721 17.8044 14.8061 17.4164 15.6241 16.7014L15.6241 16.7014C16.4321 15.9954 16.9261 15.2234 17.1051 14.3854C17.2791 13.5514 17.2301 12.7004 16.9581 11.8314C16.6901 10.9674 16.2871 10.1214 15.7481 9.29045C15.2131 8.46545 14.6361 7.69945 14.0181 6.99145L14.0181 6.99145C13.4001 6.28345 12.7151 5.60645 11.9651 4.96145C11.2191 4.32045 10.4361 3.80945 9.61713 3.42845C8.79713 3.04745 7.96413 2.88945 7.11913 2.95545C6.26913 3.02545 5.43913 3.41345 4.63113 4.11945L4.63113 4.11945C3.81313 4.83445 3.31413 5.60645 3.13613 6.43545C2.95713 7.26445 2.99913 8.11245 3.26213 8.98045C3.52513 9.84845 3.92413 10.6954 4.45813 11.5204C4.99713 12.3504 5.57613 13.1194 6.19513 13.8264ZM3.58913 16.1024L3.58913 16.1024C2.21213 14.5264 1.21513 12.9094 0.600131 11.2524C-0.015869 9.59545 -0.157869 7.98445 0.175131 6.41945C0.512131 4.85045 1.41913 3.42045 2.89413 2.13145L2.89413 2.13145C4.00813 1.15745 5.15713 0.521447 6.33913 0.224447C7.51613 -0.0695533 8.70213 -0.0745533 9.89713 0.208447C11.0881 0.487447 12.2521 1.00945 13.3911 1.77645C14.5341 2.54745 15.6191 3.52145 16.6461 4.69545L16.6461 4.69545C18.0231 6.27145 19.0191 7.89345 19.6341 9.55945C20.2541 11.2214 20.3981 12.8354 20.0661 14.4004C19.7391 15.9614 18.8351 17.3884 17.3541 18.6814L17.3541 18.6814C16.2351 19.6594 15.0841 20.2974 13.9011 20.5964C12.7191 20.8944 11.5301 20.9024 10.3361 20.6184C9.14113 20.3344 7.97413 19.8054 6.83613 19.0284C5.69813 18.2524 4.61613 17.2774 3.58913 16.1024Z" sodipodi:nodetypes="cccccccccccccccccccccccccccccccccccccccc"/>
   <path id="shape21" transform="translate(200.213, 173.176)" fill="#01ff70" stroke-opacity="0" stroke="#000000" stroke-width="0" stroke-linecap="square" stroke-linejoin="bevel" d="M4.362 10.346L2.327 13.423C2.107 13.333 1.886 13.231 1.666 13.118C1.455 13.002 1.263 12.887 1.09 12.773L1.09 12.773C0.918 12.659 0.737 12.527 0.548 12.378C0.368 12.227 0.185 12.062 0 11.884L0 11.884L7.86 0C8.049 0.053 8.252 0.132 8.471 0.236C8.69 0.341 8.885 0.45 9.057 0.564L9.057 0.564C9.502 0.858 9.736 1.193 9.76 1.568C9.784 1.943 9.621 2.395 9.271 2.923L9.271 2.923L8.152 4.616C8.038 4.788 7.872 5.034 7.652 5.353C7.428 5.668 7.258 5.912 7.145 6.084L7.145 6.084L5.319 8.845C5.201 9.023 5.043 9.274 4.845 9.598C4.637 9.924 4.476 10.173 4.362 10.346ZM20.68 19.005L7.237 10.113C6.881 9.878 6.564 9.668 6.286 9.484C6.002 9.296 5.68 9.083 5.319 8.845L5.319 8.845L4.185 8.094L5.999 5.351L7.134 6.101C7.495 6.34 7.82 6.551 8.107 6.732C8.389 6.91 8.707 7.117 9.063 7.353L9.063 7.353L22.506 16.244C22.396 16.483 22.267 16.733 22.118 16.995C21.969 17.256 21.829 17.487 21.696 17.687L21.696 17.687C21.556 17.898 21.395 18.123 21.213 18.362C21.035 18.596 20.857 18.81 20.68 19.005Z" sodipodi:nodetypes="ccccccccccccccccccccccccccccccccccccccc"/>
   <path id="shape22" transform="translate(212.834, 151.229)" fill="#01ff70" stroke-opacity="0" stroke="#000000" stroke-width="0" stroke-linecap="square" stroke-linejoin="bevel" d="M17.887 18.558L0.127 11.957L0 11.696L1.052 8.866L3.601 9.813C4.007 9.964 4.341 10.081 4.602 10.164C4.863 10.247 5.19 10.361 5.583 10.507L5.583 10.507L16.905 14.716C17.167 14.814 17.409 14.91 17.629 15.006C17.843 15.1 18.088 15.198 18.362 15.3L18.362 15.3L20.93 16.254L20.467 17.501C20.265 18.045 19.936 18.413 19.48 18.606C19.024 18.799 18.493 18.783 17.887 18.558ZM10.282 10.206L12.313 4.742C12.529 4.773 12.764 4.821 13.017 4.886C13.27 4.952 13.478 5.015 13.64 5.075L13.64 5.075C13.815 5.14 14.016 5.229 14.245 5.342C14.473 5.455 14.685 5.573 14.881 5.696L14.881 5.696L12.85 11.16C12.766 11.385 12.662 11.666 12.537 12.004C12.405 12.339 12.269 12.687 12.128 13.047C11.985 13.413 11.857 13.739 11.743 14.024L11.743 14.024L9.241 13.094C9.348 12.807 9.467 12.477 9.597 12.106C9.725 11.741 9.852 11.39 9.978 11.053C10.097 10.713 10.199 10.431 10.282 10.206ZM0.665 9.906L4.347 0C4.603 0.038 4.835 0.093 5.044 0.163C5.255 0.227 5.448 0.292 5.623 0.357L5.623 0.357C5.798 0.422 6.007 0.521 6.249 0.653C6.491 0.786 6.712 0.939 6.91 1.112L6.91 1.112L4.35 8.001C4.266 8.226 4.162 8.507 4.036 8.844C3.911 9.181 3.781 9.531 3.646 9.894C3.503 10.26 3.371 10.585 3.252 10.868L3.252 10.868ZM19.02 13.358L21.814 5.841C22.751 6.189 23.368 6.586 23.665 7.031C23.964 7.469 23.968 8.082 23.675 8.869L23.675 8.869L20.544 17.295L18.041 16.365C18.188 15.893 18.33 15.424 18.469 14.956C18.614 14.491 18.797 13.958 19.02 13.358Z" sodipodi:nodetypes="cccccccccccccccccccccccccccccccccccccccccccccccccccccccc"/>
   <path id="shape23" transform="translate(2.435, 116.651)" fill="#01ff70" stroke-opacity="0" stroke="#000000" stroke-width="0" stroke-linecap="square" stroke-linejoin="bevel" d="M0 8.189C0 3.666 3.666 0 8.189 0C12.712 0 16.378 3.666 16.378 8.189C16.378 12.712 12.712 16.378 8.189 16.378C3.666 16.378 2.22045e-15 12.712 0 8.189Z" sodipodi:nodetypes="ccccc"/>
   <path id="shape24" transform="translate(225.534, 116.651)" fill="#01ff70" stroke-opacity="0" stroke="#000000" stroke-width="0" stroke-linecap="square" stroke-linejoin="bevel" d="M0 8.189C0 3.666 3.666 0 8.189 0C12.712 0 16.378 3.666 16.378 8.189C16.378 12.712 12.712 16.378 8.189 16.378C3.666 16.378 0 12.712 0 8.189Z" sodipodi:nodetypes="ccccc"/>
  </g>
 </g>
</svg>
