<?xml version="1.0" standalone="no"?>
<!DOCTYPE svg PUBLIC "-//W3C//DTD SVG 20010904//EN" "http://www.w3.org/TR/2001/REC-SVG-20010904/DTD/svg10.dtd">
<!-- Created using Krita: https://krita.org -->
<svg xmlns="http://www.w3.org/2000/svg" 
    xmlns:xlink="http://www.w3.org/1999/xlink"
    xmlns:krita="http://krita.org/namespaces/svg/krita"
    xmlns:sodipodi="http://sodipodi.sourceforge.net/DTD/sodipodi-0.dtd"
    width="12.6667pt"
    height="12.6667pt"
    viewBox="0 0 12.6667 12.6667">
<defs/>
<g id="group0" transform="matrix(0.109835654260979 0 0 0.109835654260979 22.4720356553678 15.3132108715005)" fill="none">
  <g id="group1" transform="matrix(0.99999997219842 0 0 0.99999997219842 0 2.57946891224492e-06)" fill="none">
   <g id="group2" transform="matrix(1.58176247928555 0 0 1.58176247928555 -14.1820893041752 -14.7189067639406)" fill="none">
    <path id="shape0" transform="translate(8.96600545623348, 23.006)" fill="#01ff70" stroke-opacity="0" stroke="#000000" stroke-width="0" stroke-linecap="square" stroke-linejoin="bevel" d="M57.656 47.066C45.012 58.094 26.223 57.759 13.953 46.278C2.72199 35.77 0.450995 19.145 7.97499 6.17L8.67699 9.163C8.86899 9.981 9.59699 10.533 10.403 10.533C10.537 10.533 10.674 10.517 10.809 10.486C11.763 10.262 12.355 9.308 12.131 8.354L10.491 1.362C10.485 1.334 10.471 1.31 10.464 1.282C10.446 1.221 10.426 1.162 10.402 1.103C10.381 1.052 10.36 1.003 10.335 0.956C10.307 0.901 10.276 0.849 10.242 0.798C10.213 0.753 10.181 0.709 10.148 0.667C10.11 0.619 10.068 0.573 10.024 0.529C9.98599 0.49 9.94699 0.454 9.90599 0.419C9.88099 0.398 9.85999 0.372 9.83299 0.352C9.80799 0.332 9.77999 0.321 9.75399 0.303C9.71099 0.275 9.66799 0.249 9.62299 0.224C9.56499 0.191 9.50599 0.161 9.44599 0.137C9.40199 0.118 9.35699 0.103 9.31199 0.088C9.24899 0.067 9.18599 0.049 9.12099 0.035C9.07299 0.026 9.02299 0.019 8.97399 0.014C8.90999 0.006 8.84699 0.001 8.78299 0C8.73199 0 8.68099 0.003 8.62899 0.007C8.56399 0.012 8.49999 0.019 8.43599 0.031C8.41099 0.035 8.38699 0.035 8.36199 0.041L1.36999 1.678C0.415995 1.901 -0.176005 2.855 0.0469945 3.809C0.269995 4.763 1.22499 5.352 2.17799 5.132L4.84099 4.509C-3.42501 18.881 -0.889005 37.249 11.531 48.872C18.503 55.393 27.372 58.672 36.251 58.672C44.697 58.672 53.154 55.704 59.99 49.74C60.727 49.097 60.803 47.975 60.16 47.238C59.516 46.498 58.395 46.422 57.656 47.066Z" sodipodi:nodetypes="ccccccccccccccccccccccccccccccccccc"/>
    <path id="shape1" transform="translate(31.5461059224353, 20.801)" fill="#01ff70" stroke-opacity="0" stroke="#000000" stroke-width="0" stroke-linecap="square" stroke-linejoin="bevel" d="M13.6729 49.285C14.3259 49.285 14.8559 48.756 14.8559 48.102L14.8559 40.828C21.6009 38.349 25.6659 34.474 26.9249 29.295C30.0009 16.655 15.1589 1.02 14.5269 0.361C14.5229 0.358 14.5199 0.357 14.5159 0.354C14.5109 0.348 14.5039 0.343 14.4979 0.337C14.4949 0.334 14.4949 0.331 14.4919 0.328C14.4539 0.292 14.4059 0.278 14.3649 0.247C14.3229 0.217 14.2809 0.186 14.2359 0.161C14.1999 0.141 14.1719 0.108 14.1349 0.094C14.1279 0.091 14.1199 0.091 14.1119 0.088C14.0469 0.062 13.9759 0.059 13.9079 0.045C13.8329 0.029 13.7599 0.003 13.6839 0.002C13.6799 0.002 13.6769 0 13.6729 0C13.6689 0 13.6649 0.002 13.6599 0.002C13.5939 0.003 13.5299 0.028 13.4639 0.04C13.3849 0.054 13.3069 0.058 13.2319 0.088C13.2249 0.091 13.2159 0.091 13.2089 0.094C13.1779 0.107 13.1549 0.135 13.1249 0.151C13.0769 0.176 13.0359 0.209 12.9919 0.24C12.9469 0.272 12.8939 0.289 12.8529 0.328C12.8499 0.331 12.8489 0.335 12.8459 0.338C12.8409 0.344 12.8349 0.349 12.8289 0.355C12.8259 0.358 12.8219 0.359 12.8189 0.362C12.1859 1.021 -2.65611 16.656 0.418894 29.296C1.67989 34.476 5.74489 38.351 12.4889 40.829L12.4889 48.103C12.4909 48.756 13.0199 49.285 13.6729 49.285ZM24.6269 28.735C23.6149 32.894 20.3129 36.09 14.8559 38.281L14.8559 33.863L21.1959 27.523C21.6579 27.061 21.6579 26.313 21.1959 25.85C20.7339 25.388 19.9859 25.388 19.5239 25.85L14.8559 30.518L14.8559 21.436L18.4699 17.82C18.9319 17.358 18.9319 16.61 18.4699 16.148C18.0079 15.686 17.2599 15.686 16.7979 16.148L14.8559 18.091L14.8559 4.324C18.7619 9.032 26.7539 19.997 24.6269 28.735ZM2.71889 28.738C0.592894 20.01 8.58289 9.037 12.4899 4.325L12.4899 15.754L10.5479 13.812C10.0859 13.35 9.33789 13.35 8.87589 13.812C8.41389 14.274 8.41389 15.022 8.87589 15.484L12.4899 19.098L12.4899 28.181L7.82289 23.514C7.36089 23.052 6.61289 23.052 6.15089 23.514C5.68889 23.976 5.68889 24.724 6.15089 25.186L12.4899 31.525L12.4899 38.281C7.03389 36.092 3.73189 32.896 2.71889 28.738Z" sodipodi:nodetypes="ccccccccccccccccccccccccccccccccccccccccccccccccccccccccc"/>
    <path id="shape2" transform="translate(21.4312080021723, 9.30538332618327)" fill="#01ff70" stroke-opacity="0" stroke="#000000" stroke-width="0" stroke-linecap="square" stroke-linejoin="bevel" d="M60.3348 54.3156C60.1098 53.3616 59.1578 52.7736 58.2028 52.9926L55.4348 53.6406C63.3418 39.3536 60.6908 21.1716 48.4818 9.75062C35.1778 -2.69938 14.6088 -3.29638 0.637792 8.35962C-0.114208 8.98662 -0.216208 10.1056 0.411792 10.8576C1.03979 11.6096 2.15879 11.7116 2.91079 11.0836C15.5098 0.573617 34.0578 1.11362 46.0598 12.3416C57.0388 22.6126 59.4258 38.9356 52.3698 51.8046L51.7018 48.9576C51.4788 48.0046 50.5258 47.4086 49.5698 47.6366C48.6158 47.8606 48.0248 48.8146 48.2488 49.7686L49.8898 56.7606C49.8938 56.7766 49.9058 56.7896 49.9088 56.8056C49.9558 56.9786 50.0218 57.1476 50.1208 57.3016C50.1318 57.3206 50.1468 57.3356 50.1598 57.3546C50.2498 57.4846 50.3578 57.6046 50.4858 57.7106C50.5068 57.7286 50.5228 57.7466 50.5438 57.7626C50.5558 57.7716 50.5648 57.7816 50.5738 57.7896C50.6608 57.8516 50.7588 57.8856 50.8528 57.9316C50.9198 57.9636 50.9818 58.0086 51.0528 58.0336C51.2368 58.0956 51.4258 58.1296 51.6148 58.1296C51.7488 58.1296 51.8838 58.1146 52.0198 58.0836L59.0108 56.4466C59.9648 56.2226 60.5568 55.2686 60.3348 54.3156Z" sodipodi:nodetypes="ccccccccccccccccccccccccc"/>
   </g>
  </g>
 </g>
</svg>
